<?xml version="1.0" encoding="utf-8"?>
<!-- Generator: Adobe Illustrator 21.0.0, SVG Export Plug-In . SVG Version: 6.00 Build 0)  -->
<svg version="1.1" id="Layer_1" xmlns="http://www.w3.org/2000/svg" xmlns:xlink="http://www.w3.org/1999/xlink" x="0px" y="0px"
	 viewBox="0 0 855.5 183.9" style="enable-background:new 0 0 855.5 183.9;" xml:space="preserve">
<title>Asset 2</title>
<g id="Layer_2">
	<g id="Livello_1">
		<path d="M63.3,43.8H46.2c2.5,15.3-0.3,24.6,2.3,41.5H29.6c4-16.8,10.6-26.1,14.1-41.5h-17c-5.5,17.3-12.2,34.1-16.4,51.7h62
			C69,78.3,66.7,60.8,63.3,43.8z"/>
		<path d="M4.2,95.5c-2.9,11.4-4.3,23.1-4.2,34.8h18.9c2.2-11.1,1.8-16.6,2.5-27.7h25.7c3.7,11.1,6.4,16.6,8.6,27.7h18.9
			c-3.6-11.4-6.4-23-8.5-34.8H4.2z"/>
		<path d="M38.8,30.5c0.2,0,2,8.4,2.1,8.4c0.4,1.8,1.5,3.6,1.8,5.2l13.8-0.3c-2.9-14.5-6.5-28.7-12-42.3H28.7
			c-1,14.8-4.6,28.7-8.9,42.3h17.1C37.3,42.1,38.5,32.3,38.8,30.5z"/>
		<path d="M102.6,1.5H84.4C86.9,16,86.5,30,85.3,43.8h32.4C113.5,31,108.8,18.6,102.6,1.5z"/>
		<path d="M150.3,1.5h-18.9c0,17.1,0.1,29.4-0.5,42.3h20.2C152.4,30,152.8,16,150.3,1.5z"/>
		<path d="M158,43.8h-20.2c-0.5,10.5-1.4,21.3-3.2,35.3h-0.4c-3.3-14-6.3-24.8-9.7-35.3H92.1c-1.5,17.3-4.4,34.4-4.7,51.7h21.8
			c-0.6-14.2,0.1-28.5,2.1-42.6h0.4c3.5,14.5,8.1,28.8,13.8,42.6h27.8C153.6,78.1,156.4,61.1,158,43.8z"/>
		<path d="M85.2,130.3H104c0-13.8-0.6-24.4-0.9-34.8H81.3C81,107.2,82.3,118.9,85.2,130.3z"/>
		<path d="M147.2,95.5h-27.8c4.2,10.4,8.7,21,13.9,34.8H151C148.1,118.9,146.8,107.2,147.2,95.5z"/>
		<path d="M208.5,95.5c0,0.5,0,0.9,0.1,1.3c0.6,5.6,0.1,9.6-1.7,12.2s-5.4,3.9-10.7,3.9h-8.7c-0.8-5.8-1.4-11.6-1.6-17.4h-19.6
			c-0.4,11.7,0.9,23.4,3.8,34.8h26.3c11.2,0,19.9-2.9,25.4-8.6s6.5-14.4,5.5-26.2H208.5z"/>
		<path d="M195.6,43.8H177c-1.5,17.3-4.4,34.4-4.7,51.7H192C191.3,76.5,194.4,61.8,195.6,43.8z"/>
		<path d="M233.3,95c-1.8-20.9,4.4-32.7,5.4-51.2h-18.9c-1,18.8-7.2,30.9-5.4,51.7h18.8C233.4,95.3,233.4,95.2,233.3,95z"/>
		<path d="M188.9,18.9h8.7c5.6,0,9.5,1.4,11.7,4.2c2.3,2.8,3.6,6.7,3.8,11.8c0.1,3.2,0.1,6.2,0,9H232c0.1-2.8,0.2-5.8,0.1-9
			c-0.5-10.5-4-18.6-9.9-24.5s-14.1-8.8-24.8-8.8h-28c2.5,14.4,2.1,28.4,0.8,42.3h18.6C189.4,35.5,189.4,27.2,188.9,18.9z"/>
		<path d="M269.8,18.9h9.8c2.9-0.1,5.7,0.3,8.4,1.3c2.1,0.8,3.8,2.1,5.1,3.9c1.3,1.9,2.3,4.1,2.7,6.3c0.6,2.8,0.9,5.7,0.9,8.6
			c0,1.7,0,3.3-0.1,4.8h18.8c0.2-1.5,0.2-3,0.2-4.5c-0.7-25.2-12.8-37.8-35-37.8h-30.4c2.5,14.4,2.1,28.4,0.8,42.3h20
			C271.3,36,270.4,29,269.8,18.9z"/>
		<path d="M302,71.5c6.7-3.3,11.9-7.6,15.3-12.9c2.8-4.5,4.5-9.5,4.9-14.8h-18.8c-0.1,1.3-0.2,2.5-0.5,3.8c-0.4,2.3-1.4,4.4-2.8,6.2
			c-1.4,1.7-3.2,3.1-5.2,3.9c-2.6,1-5.4,1.4-8.2,1.3H276c1-5,1.6-10.1,1.7-15.2h-19.9c-1.5,17.3-4.4,34.4-4.7,51.7H272
			c-0.7-6.7-0.4-13.5,0.8-20.2h11.3c1,6.9,3,13.7,5.7,20.2h19.4C305.7,87.8,303.3,79.8,302,71.5z"/>
		<path d="M251,130.3h18.9c0-14.2-2.9-23.8-3.9-34.8h-18.8C246.8,107.2,248.1,118.9,251,130.3z"/>
		<path d="M283.7,95.5c4.5,11,10.5,20.6,15,34.8h20c-4.9-14.2-10.9-24-15.6-34.8H283.7z"/>
		<path d="M350.7,18.9H388c-0.4-6.9-0.6-10.4-0.6-17.4h-56.3c2.5,14.4,2.1,28.4,0.9,42.3h20C352.2,35.8,351.3,29.1,350.7,18.9z"/>
		<path d="M353.9,74h32.6c1.3-6.9,2.3-10.4,3.5-17.4h-32.6c0.8-4.3,1.2-8.6,1.3-12.9h-20c-1.5,17.3-4.4,34.4-4.7,51.7h18.8
			C352.1,88.3,352.5,81.1,353.9,74z"/>
		<path d="M349,111.8c-1-6.4-1.8-11.5-2.2-16.4H328c-0.4,11.7,0.9,23.4,3.8,34.8h56.3c0-7.4-0.6-11.1-1.7-18.4L349,111.8z"/>
		<path d="M398,95.5c-2.9,11.4-4.3,23.1-4.1,34.8h18.9c2.2-11.1,1.8-16.6,2.5-27.7H441c3.7,11.1,6.4,16.6,8.6,27.7h18.9
			c-3.6-11.4-6.4-23-8.5-34.8H398z"/>
		<path d="M457.1,43.8H440c2.5,15.3,4,24.6,6.6,41.5h-23.2c4-16.8,10.5-26.1,14.1-41.5h-17.1c-5.5,17.3-12.2,34.1-16.4,51.7h62
			C462.9,78.3,460.5,60.8,457.1,43.8z"/>
		<path d="M431.3,37.8c0.1,0,0.8-8.6,0.9-8.6c0.4,1.8,3.1,12.8,3.4,14.5h14.8c-2.9-14.5-6.5-28.7-12-42.3h-15.8
			c-1,14.8-4.6,28.7-8.9,42.3h17.1C431.2,42.1,431,39.7,431.3,37.8z"/>
		<path d="M527.3,1.1h-18.5c0.9,14.4,0.2,28.6-0.7,42.9h17.3C526.3,31.3,527.3,17.8,527.3,1.1z"/>
		<path d="M543.3,44H526c-1.1,17.1-2.7,34.2-2.5,51.3h18.7C540.9,76,542,60.6,543.3,44z"/>
		<path d="M519.9,111c-0.7-5.6-1.1-10.7-1.5-15.6h-18.7c0,11.4,1.1,22.8,3.2,34H558c-0.1-6.1-0.6-12.3-1.5-18.4
			C556.5,111,519.9,111,519.9,111z"/>
		<path d="M588.5,31.4c0-4.4,1.2-7.7,3.7-9.8c5.1-4.2,12.5-4.2,17.6,0c2.5,2.1,3.7,5.4,3.7,9.8c0,4.6-0.2,8.7-0.4,12.7h18.5
			c0.3-3.9,0.4-8.1,0.4-12.7c0.1-4.7-0.8-9.4-2.7-13.7c-1.7-3.7-4.1-7.1-7.2-9.8c-2.9-2.6-6.3-4.6-10-5.9c-7.2-2.6-15.1-2.6-22.3,0
			c-3.7,1.3-7.1,3.3-10,5.9c-3.1,2.7-5.5,6.1-7.2,9.8c-1.9,4.3-2.8,9-2.7,13.7c0,4.6-0.2,8.7-0.4,12.7H588
			C588.3,40.1,588.5,35.9,588.5,31.4z"/>
		<path d="M593.4,44h-18.5c-1.2,18.2-4.3,31.1-2.8,51.3h18.5C589.1,75.1,592.3,62.2,593.4,44z"/>
		<path d="M637,44h-18.5c-1.2,18.2-4.3,31.1-2.8,51.3h18.5C632.7,75.1,635.8,62.2,637,44z"/>
		<path d="M629.9,95.3h-18.5c0.1,1.3,0.2,2.4,0.3,3.8c0.5,4.4-0.4,7.7-2.6,9.8c-2.3,2.1-5.3,3.3-8.4,3.2c-3.3,0-6.6-1.1-9.2-3.2
			c-2.7-2.1-4.4-5.4-4.9-9.8c-0.1-1.3-0.2-2.5-0.3-3.8h-18.5c0.1,1.3,0.2,2.4,0.3,3.8c0.4,4.9,1.9,9.6,4.4,13.8
			c2.1,3.7,4.9,7,8.2,9.7c3.1,2.5,6.5,4.5,10.3,5.9c3.6,1.3,7.4,2,11.2,2s7.6-0.7,11.1-2c3.6-1.3,6.9-3.3,9.7-5.9
			c2.8-2.7,5-6,6.2-9.7c1.3-3.9,1.6-8.5,1.1-13.8C630,97.8,630,96.6,629.9,95.3z"/>
		<path d="M655.6,1.1H636c3.8,14.1,6.1,28.5,8.1,42.9h16.4C659.4,31.2,658.4,18.2,655.6,1.1z"/>
		<path d="M705.1,1.1h-19.6c-2.8,17.1-6.1,30.1-9.3,42.9h19.3C699.3,29.9,703,15.6,705.1,1.1z"/>
		<path d="M653.2,95.3c2.4,11.6,5.8,23,10.2,34h16.3c0.3-11.4,1.5-22.8,3.8-34H653.2z"/>
		<path d="M700.8,44h-19.3c-3.5,14.1-6.8,27.9-9.2,46.6h-0.4c-3.8-18.7-5.1-32.6-6.3-46.6h-16.4c2.4,17.2,4.4,34.4,8,51.3h30.3
			C691.1,78,696.2,61.1,700.8,44z"/>
		<path d="M730.7,38h0.4c0.4,2.1,0.8,4.1,1,6h15.5c-2.3-14.4-4.9-28.8-9-42.9h-15.3c-2.4,14.6-6.3,28.8-10.4,42.9h16.6
			C729.8,42.1,730.3,40.1,730.7,38z"/>
		<path d="M699.9,95.3c-2.5,11.2-4,22.6-4.4,34H714c2-11,1.9-16.5,2.8-27.6H742c3.4,11,5.8,16.5,8.1,27.6h18.5
			c-4.6-11-8.3-22.4-10.9-34H699.9z"/>
		<path d="M753,44h-15.5c2.3,14.8,1.7,24,4.4,40.5h-18.5C727,68,731.3,58.8,734.8,44h-16.6c-5,17.1-10.3,34-14,51.3H762
			C758.1,78.4,755.7,61.2,753,44z"/>
		<path d="M799.8,17.7h21.4V0.4h-61.3v17.3h21.4c0,9.7,0,18.2-0.1,26.3h18.5C799.7,36,799.8,27.4,799.8,17.7z"/>
		<path d="M805,44h-18.5c-0.1,18.4-0.3,33.7-0.3,51.3h18.5C804.7,77.7,804.9,62.4,805,44z"/>
		<path d="M782,95.3c0,10,0.1,20.8,0.4,33.4h18.5c-0.2-12.6-0.3-23.3-0.4-33.4C800.5,95.3,782,95.3,782,95.3z"/>
		<path d="M850.9,1.1h-18.5c0.9,14.4,0.2,28.6-0.7,42.9h18.5C851.1,29.7,851.8,15.4,850.9,1.1z"/>
		<path d="M855.5,44H837c-1.1,17.1-2.7,34.2-2.5,51.3H853C852.8,78.2,854.4,61.1,855.5,44z"/>
		<path d="M848.7,95.3h-18.5c0,11.4,1.1,22.8,3.2,34h18.5C849.8,118.1,848.7,106.7,848.7,95.3z"/>
	</g>
</g>
</svg>
